<mxfile host="app.diagrams.net" modified="2024-01-31T07:30:35.647Z" agent="Mozilla/5.0 (Macintosh; Intel Mac OS X 10_15_7) AppleWebKit/537.36 (KHTML, like Gecko) Chrome/120.0.0.0 Safari/537.36" version="22.1.18" etag="r0PmZkNPYChAB1InI5yd" type="github">
  <diagram name="Page-1" id="uXQtC20ATKK_SjKrHWGS">
    <mxGraphModel>
      <root>
        <mxCell id="0" />
        <mxCell id="1" parent="0" />
      </root>
    </mxGraphModel>
  </diagram>
</mxfile>
